<svg width="21" height="23" viewBox="0 0 21 23" fill="none" xmlns="http://www.w3.org/2000/svg">
<path d="M1.99798 0.740393L19.5233 10.5997C19.683 10.6896 19.8158 10.8204 19.9083 10.9786C20.0007 11.1368 20.0494 11.3167 20.0494 11.5C20.0494 11.6832 20.0007 11.8632 19.9083 12.0214C19.8158 12.1796 19.683 12.3103 19.5233 12.4003L1.99798 22.2596C1.84068 22.348 1.66297 22.3937 1.48253 22.3921C1.30209 22.3905 1.12521 22.3417 0.969492 22.2505C0.813776 22.1593 0.684653 22.0289 0.594971 21.8723C0.505288 21.7158 0.458173 21.5384 0.458313 21.358V1.64198C0.458398 1.46164 0.505678 1.28446 0.595453 1.12806C0.685228 0.971652 0.814372 0.841466 0.97005 0.750436C1.12573 0.659406 1.30252 0.610704 1.48285 0.609168C1.66318 0.607633 1.84077 0.652027 1.99798 0.740393Z" fill="white"/>
</svg>
